<svg xmlns="http://www.w3.org/2000/svg" viewBox="0 0 446.57 224.48">
    <defs>
        <style>.cls-1{fill:#13ce66;}.cls-2{fill:#114dba;}</style>
    </defs>
    <title>pyxl-logo</title>
    <g id="Layer_2" data-name="Layer 2">
        <g id="Layer_1-2" data-name="Layer 1">
            <path class="cls-1"
                  d="M100,110.7c0-24.53-20.62-45.24-45-45.24A43.79,43.79,0,0,0,26.1,76.71L21.24,81v59.2s13,15.74,33.78,15.74A45.17,45.17,0,0,0,100,110.7ZM35.6,87.47A29.63,29.63,0,0,1,55,79.82c16.61,0,30.64,14.14,30.64,30.88A30.79,30.79,0,0,1,55,141.56c-9.45,0-15.05-3.46-19.42-7.57Z"/>
            <path class="cls-1"
                  d="M55,44.23c-21.5,0-43.74,11.66-54.09,28.38L0,74.11V224.48H14.36V78.33c8.26-11.54,25-19.74,40.66-19.74A52.11,52.11,0,1,1,55,162.8c-20.29,0-34-12.75-34-12.75v74.43H35.37V174.29A70.72,70.72,0,0,0,55,177.17c37.27,0,66.47-29.2,66.47-66.47S92.29,44.23,55,44.23Z"/>
            <rect class="cls-1" x="410.96" width="14.36" height="174.86"/>
            <rect class="cls-1" x="432.2" width="14.36" height="174.86"/>
            <polygon class="cls-2"
                     points="279.2 174.85 327.37 110.68 279.27 46.52 261.22 46.52 309.4 110.68 261.22 174.85 279.2 174.85"/>
            <polygon class="cls-2"
                     points="305.9 46.52 287.97 46.52 331.6 105.01 336.12 110.68 331.6 116.36 287.92 174.85 305.9 174.85 354.08 110.68 305.9 46.52"/>
            <polygon class="cls-1"
                     points="358.31 105.01 358.34 105.05 402.3 46.52 384.25 46.52 349.38 93.03 358.31 105.01"/>
            <polygon class="cls-1" points="345.11 87.32 375.55 46.52 357.61 46.52 336.07 75.21 345.11 87.32"/>
            <polygon class="cls-1"
                     points="358.31 116.36 349.38 128.31 384.31 174.85 402.3 174.85 358.34 116.32 358.31 116.36"/>
            <polygon class="cls-1" points="336.06 146.14 357.61 174.85 375.6 174.85 345.11 134.03 336.06 146.14"/>
            <path class="cls-1"
                  d="M231.15,166.09a9.5,9.5,0,0,0,.17-1.53V150.45a53.31,53.31,0,0,1-34.7,12.35c-28,0-52.11-23.38-52.11-52.1V46.52H130.15V110.7a66.55,66.55,0,0,0,84,64.14c-4.43,9.21-14.83,19.45-21.07,23.64l10.26,10.45C217.75,199.35,229.41,182.17,231.15,166.09Z"/>
            <path class="cls-1"
                  d="M196.62,155.93c24.2,0,34.7-15.5,34.7-15.5V46.52H217v87.25c-5,4.24-11.08,7.79-20.33,7.79a31.27,31.27,0,0,1-30.87-30.86V46.52H151.39V110.7C151.39,135.21,172.41,155.93,196.62,155.93Z"/>
            <path class="cls-1"
                  d="M238.19,46.52v117c-.63,19.09-13.19,39.17-29.84,50.54l10.27,10.46c16.23-11.82,28.59-30.19,32.57-49.49a51.58,51.58,0,0,0,1.36-11.62V46.52Z"/>
        </g>
    </g>
</svg>